# xmcd CD database file
#
# Track frame offsets:
#	150
#	15972
#	31225
#	53836
#	70313
#	108469
#	134522
#	150580
#	175470
#	216000
#	245009
#	258260
#	272488
#	285788
#	301660
#
# Disc length: 4169 seconds
#
# Revision: 0
# Processed by: cddbd v1.5.2PL0 Copyright (c) Steve Scherf et al.
# Submitted via: CDex 1.70beta2
#
DISCID=c510470f
DTITLE=Jean-Michel Pilc - True Story
DYEAR=2010
DGENRE=Jazz
TTITLE0=The Other Night
TTITLE1=Relic
TTITLE2=PBH Factor
TTITLE3=A Brief History Of Time
TTITLE4=High Sky - The Elegant Universe
TTITLE5=Mornings With Franz
TTITLE6=Kingston. NY
TTITLE7=Try To Remember
TTITLE8=B.B.B.
TTITLE9=My Heart Belongs To Daddy
TTITLE10=True Story - Scene 1
TTITLE11=True Story - Scene 2
TTITLE12=True Story - Scene 3
TTITLE13=True Story - Scene 4
TTITLE14=True Story - Scene 5
EXTD=YEAR: 2010
EXTT0=
EXTT1=
EXTT2=
EXTT3=
EXTT4=
EXTT5=
EXTT6=
EXTT7=
EXTT8=
EXTT9=
EXTT10=
EXTT11=
EXTT12=
EXTT13=
EXTT14=
PLAYORDER=
